REM DIRINDEX 1\2,1\3,1\4,1\5,1\6
REM DIRNAME folder01,folder02,folder03,folder04,folder05,folder06
TITLE ""
FILE "Disc6Track49.mp3" MP3
  TRACK 01 AUDIO
    TITLE "3:cjc030_11823"
    INDEX 01 00:00:00
  TRACK 02 AUDIO
    TITLE "0:"
    INDEX 01 00:00:74
  TRACK 03 AUDIO
    TITLE "4:cjc030_11824"
    INDEX 01 00:01:11
  TRACK 04 AUDIO
    TITLE "0:"
    INDEX 01 00:03:29
  TRACK 05 AUDIO
    TITLE "5:cjc030_11825"
    INDEX 01 00:03:39
  TRACK 06 AUDIO
    TITLE "0:"
    INDEX 01 00:04:48
  TRACK 07 AUDIO
    TITLE "6:cjc030_11826"
    INDEX 01 00:04:58
  TRACK 08 AUDIO
    TITLE "0:"
    INDEX 01 00:09:22
  TRACK 09 AUDIO
    TITLE "3:cjc030_11827"
    INDEX 01 00:09:69
  TRACK 10 AUDIO
    TITLE "0:"
    INDEX 01 00:11:11
  TRACK 11 AUDIO
    TITLE "4:cjc030_11828"
    INDEX 01 00:11:21
  TRACK 12 AUDIO
    TITLE "0:"
    INDEX 01 00:12:18
  TRACK 13 AUDIO
    TITLE "5:cjc030_11829"
    INDEX 01 00:12:30
  TRACK 14 AUDIO
    TITLE "0:"
    INDEX 01 00:13:45
  TRACK 15 AUDIO
    TITLE "3:cjc030_11830"
    INDEX 01 00:14:15
  TRACK 16 AUDIO
    TITLE "0:"
    INDEX 01 00:15:23
  TRACK 17 AUDIO
    TITLE "4:cjc030_11831"
    INDEX 01 00:15:34
  TRACK 18 AUDIO
    TITLE "0:"
    INDEX 01 00:17:49
  TRACK 19 AUDIO
    TITLE "5:cjc030_11832"
    INDEX 01 00:17:59
  TRACK 20 AUDIO
    TITLE "0:"
    INDEX 01 00:18:68
  TRACK 21 AUDIO
    TITLE "6:cjc030_11833"
    INDEX 01 00:19:03
  TRACK 22 AUDIO
    TITLE "0:"
    INDEX 01 00:23:12
  TRACK 23 AUDIO
    TITLE "3:cjc030_11834"
    INDEX 01 00:23:59
  TRACK 24 AUDIO
    TITLE "0:"
    INDEX 01 00:25:03
  TRACK 25 AUDIO
    TITLE "4:cjc030_11835"
    INDEX 01 00:25:15
  TRACK 26 AUDIO
    TITLE "0:"
    INDEX 01 00:26:28
  TRACK 27 AUDIO
    TITLE "5:cjc030_11836"
    INDEX 01 00:26:36
  TRACK 28 AUDIO
    TITLE "0:"
    INDEX 01 00:27:57
  TRACK 29 AUDIO
    TITLE "3:cjc030_11837"
    INDEX 01 00:28:27
  TRACK 30 AUDIO
    TITLE "0:"
    INDEX 01 00:29:52
  TRACK 31 AUDIO
    TITLE "4:cjc030_11838"
    INDEX 01 00:29:62
  TRACK 32 AUDIO
    TITLE "0:"
    INDEX 01 00:33:69
  TRACK 33 AUDIO
    TITLE "5:cjc030_11839"
    INDEX 01 00:34:02
  TRACK 34 AUDIO
    TITLE "0:"
    INDEX 01 00:35:29
  TRACK 35 AUDIO
    TITLE "6:cjc030_11840"
    INDEX 01 00:35:35
  TRACK 36 AUDIO
    TITLE "0:"
    INDEX 01 00:40:38
  TRACK 37 AUDIO
    TITLE "3:cjc030_11841"
    INDEX 01 00:41:02
  TRACK 38 AUDIO
    TITLE "0:"
    INDEX 01 00:42:18
  TRACK 39 AUDIO
    TITLE "4:cjc030_11842"
    INDEX 01 00:42:29
  TRACK 40 AUDIO
    TITLE "0:"
    INDEX 01 00:44:30
  TRACK 41 AUDIO
    TITLE "5:cjc030_11843"
    INDEX 01 00:44:42
  TRACK 42 AUDIO
    TITLE "0:"
    INDEX 01 00:45:57
  TRACK 43 AUDIO
    TITLE "6:cjc030_11844"
    INDEX 01 00:45:69
  TRACK 44 AUDIO
    TITLE "0:"
    INDEX 01 00:47:44
  TRACK 45 AUDIO
    TITLE "3:cjc030_11845"
    INDEX 01 00:48:18
  TRACK 46 AUDIO
    TITLE "0:"
    INDEX 01 00:49:27
  TRACK 47 AUDIO
    TITLE "4:cjc030_11846"
    INDEX 01 00:49:39
  TRACK 48 AUDIO
    TITLE "0:"
    INDEX 01 00:52:12
  TRACK 49 AUDIO
    TITLE "5:cjc030_11847"
    INDEX 01 00:52:20
  TRACK 50 AUDIO
    TITLE "0:"
    INDEX 01 00:53:35
  TRACK 51 AUDIO
    TITLE "6:cjc030_11848"
    INDEX 01 00:53:45
  TRACK 52 AUDIO
    TITLE "0:"
    INDEX 01 00:55:24
  TRACK 53 AUDIO
    TITLE "3:cjc030_11849"
    INDEX 01 00:55:73
  TRACK 54 AUDIO
    TITLE "0:"
    INDEX 01 00:57:07
  TRACK 55 AUDIO
    TITLE "4:cjc030_11850"
    INDEX 01 00:57:17
  TRACK 56 AUDIO
    TITLE "0:"
    INDEX 01 01:00:17
  TRACK 57 AUDIO
    TITLE "5:cjc030_11851"
    INDEX 01 01:00:29
  TRACK 58 AUDIO
    TITLE "0:"
    INDEX 01 01:01:38
  TRACK 59 AUDIO
    TITLE "6:cjc030_11852"
    INDEX 01 01:01:50
  TRACK 60 AUDIO
    TITLE "0:"
    INDEX 01 01:06:59
  TRACK 61 AUDIO
    TITLE "3:cjc030_11853"
    INDEX 01 01:07:31
  TRACK 62 AUDIO
    TITLE "0:"
    INDEX 01 01:08:54
  TRACK 63 AUDIO
    TITLE "4:cjc030_11854"
    INDEX 01 01:08:64
  TRACK 64 AUDIO
    TITLE "0:"
    INDEX 01 01:10:57
  TRACK 65 AUDIO
    TITLE "5:cjc030_11855"
    INDEX 01 01:10:67
  TRACK 66 AUDIO
    TITLE "0:"
    INDEX 01 01:12:17
  TRACK 67 AUDIO
    TITLE "3:cjc030_11856"
    INDEX 01 01:12:73
  TRACK 68 AUDIO
    TITLE "0:"
    INDEX 01 01:15:19
  TRACK 69 AUDIO
    TITLE "4:cjc030_11857"
    INDEX 01 01:15:31
  TRACK 70 AUDIO
    TITLE "0:"
    INDEX 01 01:21:31
  TRACK 71 AUDIO
    TITLE "5:cjc030_11858"
    INDEX 01 01:21:39
  TRACK 72 AUDIO
    TITLE "0:"
    INDEX 01 01:23:65
  TRACK 73 AUDIO
    TITLE "6:cjc030_11859"
    INDEX 01 01:24:00
  TRACK 74 AUDIO
    TITLE "0:"
    INDEX 01 01:28:18
  TRACK 75 AUDIO
    TITLE "3:cjc030_11860"
    INDEX 01 01:28:65
  TRACK 76 AUDIO
    TITLE "0:"
    INDEX 01 01:30:07
  TRACK 77 AUDIO
    TITLE "4:cjc030_11861"
    INDEX 01 01:30:18
  TRACK 78 AUDIO
    TITLE "0:"
    INDEX 01 01:31:36
  TRACK 79 AUDIO
    TITLE "5:cjc030_11862"
    INDEX 01 01:31:43
  TRACK 80 AUDIO
    TITLE "0:"
    INDEX 01 01:32:62
  TRACK 81 AUDIO
    TITLE "6:cjc030_11863"
    INDEX 01 01:32:74
  TRACK 82 AUDIO
    TITLE "0:"
    INDEX 01 01:39:41
  TRACK 83 AUDIO
    TITLE "3:cjc030_11864"
    INDEX 01 01:40:13
  TRACK 84 AUDIO
    TITLE "0:"
    INDEX 01 01:41:32
  TRACK 85 AUDIO
    TITLE "4:cjc030_11865"
    INDEX 01 01:41:42
  TRACK 86 AUDIO
    TITLE "0:"
    INDEX 01 01:43:23
  TRACK 87 AUDIO
    TITLE "5:cjc030_11866"
    INDEX 01 01:43:31
  TRACK 88 AUDIO
    TITLE "0:"
    INDEX 01 01:44:52
  TRACK 89 AUDIO
    TITLE "3:cjc030_11867"
    INDEX 01 01:45:28
  TRACK 90 AUDIO
    TITLE "0:"
    INDEX 01 01:46:25
  TRACK 91 AUDIO
    TITLE "4:cjc030_11868"
    INDEX 01 01:46:35
  TRACK 92 AUDIO
    TITLE "0:"
    INDEX 01 01:48:32
  TRACK 93 AUDIO
    TITLE "5:cjc030_11869"
    INDEX 01 01:48:40
  TRACK 94 AUDIO
    TITLE "0:"
    INDEX 01 01:49:37
  TRACK 95 AUDIO
    TITLE "6:cjc030_11870"
    INDEX 01 01:49:47
  TRACK 96 AUDIO
    TITLE "0:"
    INDEX 01 01:51:40
  TRACK 97 AUDIO
    TITLE "3:cjc030_11871"
    INDEX 01 01:52:10
  TRACK 98 AUDIO
    TITLE "0:"
    INDEX 01 01:53:29
  TRACK 99 AUDIO
    TITLE "4:cjc030_11872"
    INDEX 01 01:53:39
  TRACK 100 AUDIO
    TITLE "0:"
    INDEX 01 01:55:58
  TRACK 101 AUDIO
    TITLE "5:cjc030_11873"
    INDEX 01 01:55:67
  TRACK 102 AUDIO
    TITLE "0:"
    INDEX 01 01:57:13
  TRACK 103 AUDIO
    TITLE "6:cjc030_11874"
    INDEX 01 01:57:23
  TRACK 104 AUDIO
    TITLE "0:"
    INDEX 01 02:03:73
